<?xml version="1.0" encoding="UTF-8"?>
<svg width="20px" height="20px" viewBox="0 0 20 20" version="1.1" xmlns="http://www.w3.org/2000/svg" xmlns:xlink="http://www.w3.org/1999/xlink">
    <!-- Generator: Sketch 46.2 (44496) - http://www.bohemiancoding.com/sketch -->
    <title>002-linkedin-logo</title>
    <desc>Created with Sketch.</desc>
    <defs></defs>
    <g id="Desktop-design" stroke="none" stroke-width="1" fill="none" fill-rule="evenodd">
        <g id="menu" transform="translate(-441.000000, -734.000000)" fill-rule="nonzero" fill="#ffffff">
            <g id="002-linkedin-logo" transform="translate(441.000000, 734.000000)">
                <path d="M18.5231788,0 L1.4777512,0 C0.661547082,0 0,0.641358883 0,1.43295561 L0,18.5664399 C0,19.3580831 0.661779579,20 1.4777512,20 L18.5231788,20 C19.3391969,20 20,19.3576646 20,18.5664399 L20,1.43295561 C20,0.641591377 19.3391969,0 18.5231788,0 Z M6.06342984,16.7413593 L3.0415728,16.7413593 L3.0415728,7.71160472 L6.06342984,7.71160472 L6.06342984,16.7413593 Z M4.55280357,6.47798976 L4.53248332,6.47798976 C3.51912172,6.47798976 2.86222458,5.78497064 2.86222458,4.91734826 C2.86222458,4.03224231 3.53841897,3.35800873 4.57186832,3.35800873 C5.60541067,3.35800873 6.24115058,4.03205632 6.26123833,4.91734826 C6.26123833,5.78515663 5.60564317,6.47798976 4.55280357,6.47798976 Z M16.9563347,16.7413593 L13.9354542,16.7413593 L13.9354542,11.910127 C13.9354542,10.696181 13.4977552,9.86785022 12.4052981,9.86785022 C11.5695643,9.86785022 11.0734621,10.4266736 10.8556124,10.9662 C10.7748894,11.1588913 10.7548946,11.4283987 10.7548946,11.6975342 L10.7548946,16.7411734 L7.73457208,16.7411734 C7.73457208,16.7411734 7.77409657,8.5583491 7.73457208,7.71146523 L10.7553596,7.71146523 L10.7553596,8.99162555 C11.1563705,8.37649203 11.8729729,7.4990119 13.477156,7.4990119 C15.4654707,7.4990119 16.9563347,8.78884399 16.9563347,11.5636639 L16.9563347,16.7413593 Z M10.7358299,9.05316505 C10.7469299,9.03496505 10.7624299,9.01306505 10.7778299,8.99176505 L10.7778299,9.05316505 L10.7358299,9.05316505 Z" id="LinkedIn__x28_alt_x29_"></path>
            </g>
        </g>
    </g>
</svg>